<svg width="208" height="150" viewBox="0 0 208 150" fill="none" xmlns="http://www.w3.org/2000/svg">
<path d="M104.242 76L104.249 69.8846L81 69.8424V42.0252L104.034 24L127 41.9539L126.914 69.295L104.242 76ZM87.0486 63.8635L104.604 63.8957L104.592 69.781L120.879 64.8567L120.942 44.8492L104.037 31.6331L87.0486 44.9264V63.8635Z" fill="#CF1417"/>
<path d="M64.116 101.505L69.9042 121.796H70.2755L76.5453 99.6787H81.9229L74.6899 125.268H66.7126L61.1479 105.709H60.7765L55.2117 125.268H47.2345L40 99.6787H45.3791L51.6488 121.796H52.0202L57.8084 101.505H64.116Z" fill="#CF1417"/>
<path d="M90.827 101.687C90.827 102.419 90.5733 103.059 90.0661 103.606C89.5588 104.157 88.8855 104.43 88.0461 104.43C87.2037 104.43 86.5304 104.157 86.0231 103.606C85.5158 103.059 85.2622 102.419 85.2622 101.687C85.2622 100.958 85.5158 100.319 86.0231 99.7684C86.5304 99.221 87.2037 98.9473 88.0461 98.9473C88.8613 98.9473 89.5286 99.221 90.048 99.7684C90.5673 100.319 90.827 100.958 90.827 101.687ZM90.6428 125.268H85.4494V106.623H90.6428V125.268Z" fill="#FDFFFC"/>
<path d="M118.467 102.785L101.214 122.525H118.838V125.268H94.7221V122.162L111.975 102.419H95.0934V99.6789H118.467V102.785ZM109.562 94.7431C109.562 95.475 109.309 96.1146 108.802 96.6621C108.294 97.2095 107.621 97.4832 106.782 97.4832C105.939 97.4832 105.266 97.2095 104.759 96.6621C104.251 96.1146 103.998 95.475 103.998 94.7431C103.998 94.0112 104.251 93.3715 104.759 92.8241C105.266 92.2737 105.939 92 106.782 92C107.597 92 108.264 92.2737 108.783 92.8241C109.303 93.3715 109.562 94.0112 109.562 94.7431Z" fill="#CF1417"/>
<path d="M133.866 123.442C135.076 123.442 136.209 123.233 137.259 122.82C138.31 122.406 139.343 121.82 140.357 121.065L141.84 123.257C141.372 123.674 140.822 124.049 140.191 124.391C139.56 124.733 138.878 125.019 138.15 125.251C137.419 125.483 136.659 125.664 135.868 125.798C135.076 125.932 134.285 126 133.494 126C131.737 126 130.137 125.774 128.687 125.322C127.241 124.873 126.012 124.215 124.998 123.35C123.983 122.484 123.198 121.419 122.64 120.151C122.084 118.884 121.806 117.42 121.806 115.763C121.806 114.13 122.072 112.675 122.603 111.395C123.135 110.116 123.877 109.042 124.829 108.176C125.783 107.313 126.912 106.653 128.225 106.204C129.536 105.752 130.982 105.525 132.564 105.525C134.05 105.525 135.448 105.746 136.758 106.186C138.069 106.623 139.207 107.263 140.173 108.105C141.136 108.944 141.903 109.964 142.471 111.157C143.042 112.35 143.325 113.704 143.325 115.215V117.774H127.483C127.779 119.797 128.491 121.246 129.617 122.124C130.741 123.001 132.157 123.442 133.866 123.442ZM132.564 107.903C131.849 107.903 131.181 108.036 130.562 108.304C129.943 108.575 129.406 109 128.947 109.584C128.491 110.17 128.12 110.925 127.836 111.851C127.549 112.779 127.395 113.897 127.371 115.215H137.761C137.761 113.948 137.613 112.85 137.314 111.925C137.018 111 136.628 110.238 136.145 109.64C135.665 109.042 135.107 108.605 134.476 108.325C133.845 108.042 133.207 107.903 132.564 107.903Z" fill="#FDFFFC"/>
<path d="M168 125.268H162.804V113.751C162.804 111.996 162.36 110.737 161.469 109.967C160.578 109.199 159.292 108.815 157.61 108.815H152.785V125.268H147.592V106.257H157.61C161.146 106.257 163.764 106.885 165.458 108.14C167.151 109.396 168 111.267 168 113.751V125.268Z" fill="#FDFFFC"/>
</svg>
