<svg width="152" height="46" viewBox="0 0 152 46" fill="none" xmlns="http://www.w3.org/2000/svg">
<path d="M21.1791 42L21.1842 37.531L4 37.5003V17.1723L21.0253 4L38 17.1201L37.9363 37.1002L21.1791 42ZM8.4707 33.131L21.4462 33.1545L21.4375 37.4554L33.476 33.8568L33.5223 19.2359L21.0271 9.57803L8.4707 19.2924V33.131Z" fill="#CF1417"/>
<path d="M71.7097 17.4897L75.9603 32.409H76.233L80.8372 16.1465H84.7863L79.4747 34.9619H73.6166L69.5301 20.5807H69.2573L65.1708 34.9619H59.3127L54 16.1465H57.9501L62.5544 32.409H62.8271L67.0777 17.4897H71.7097Z" fill="#CF1417"/>
<path d="M91.3272 17.6232C91.3272 18.1613 91.141 18.6316 90.7685 19.0342C90.396 19.4389 89.9015 19.6401 89.2851 19.6401C88.6665 19.6401 88.172 19.4389 87.7995 19.0342C87.427 18.6316 87.2407 18.1613 87.2407 17.6232C87.2407 17.0872 87.427 16.6169 87.7995 16.2122C88.172 15.8097 88.6665 15.6084 89.2851 15.6084C89.8838 15.6084 90.3738 15.8097 90.7552 16.2122C91.1365 16.6169 91.3272 17.0872 91.3272 17.6232ZM91.192 34.9619H87.3782V21.2524H91.192V34.9619Z" fill="#1E1E24"/>
<path d="M111.621 18.43L98.9508 32.9446H111.893V34.9615H94.1836V32.6777L106.853 18.1609H94.4563V16.1461H111.621V18.43ZM105.082 12.517C105.082 13.0551 104.895 13.5254 104.523 13.9279C104.15 14.3305 103.656 14.5317 103.04 14.5317C102.421 14.5317 101.926 14.3305 101.554 13.9279C101.181 13.5254 100.995 13.0551 100.995 12.517C100.995 11.9788 101.181 11.5085 101.554 11.106C101.926 10.7013 102.421 10.5 103.04 10.5C103.638 10.5 104.128 10.7013 104.51 11.106C104.891 11.5085 105.082 11.9788 105.082 12.517Z" fill="#CF1417"/>
<path d="M122.929 33.6189C123.818 33.6189 124.649 33.4658 125.421 33.1617C126.193 32.8576 126.951 32.4267 127.696 31.8711L128.785 33.4833C128.441 33.7896 128.037 34.0652 127.574 34.3168C127.111 34.5683 126.609 34.7783 126.075 34.949C125.538 35.1196 124.98 35.2531 124.399 35.3515C123.818 35.4499 123.237 35.5002 122.656 35.5002C121.366 35.5002 120.19 35.334 119.126 35.0015C118.064 34.6712 117.161 34.1877 116.416 33.5511C115.671 32.9145 115.095 32.1314 114.685 31.1995C114.277 30.2675 114.073 29.1913 114.073 27.9728C114.073 26.7718 114.268 25.7021 114.658 24.7614C115.048 23.8208 115.594 23.031 116.292 22.3944C116.993 21.76 117.822 21.2744 118.787 20.9441C119.749 20.6116 120.811 20.4453 121.973 20.4453C123.064 20.4453 124.091 20.6072 125.053 20.931C126.015 21.2525 126.851 21.7229 127.561 22.342C128.268 22.9588 128.831 23.7092 129.248 24.5864C129.667 25.4636 129.876 26.459 129.876 27.5703V29.4516H118.241C118.459 30.9391 118.982 32.0045 119.809 32.6498C120.634 33.2952 121.674 33.6189 122.929 33.6189ZM121.973 22.1932C121.448 22.1932 120.958 22.2916 120.503 22.4885C120.048 22.6876 119.654 23.0004 119.317 23.4292C118.982 23.8601 118.709 24.4158 118.501 25.0961C118.29 25.7786 118.177 26.6012 118.159 27.5703H125.789C125.789 26.6384 125.68 25.8311 125.461 25.1508C125.244 24.4705 124.958 23.9104 124.603 23.4707C124.25 23.031 123.84 22.7095 123.377 22.5038C122.913 22.296 122.445 22.1932 121.973 22.1932Z" fill="#1E1E24"/>
<path d="M148 34.9611H144.184V26.4929C144.184 25.2023 143.858 24.2769 143.204 23.7103C142.55 23.1459 141.605 22.8637 140.37 22.8637H136.827V34.9611H133.013V20.9824H140.37C142.967 20.9824 144.889 21.444 146.133 22.3672C147.377 23.2903 148 24.6663 148 26.4929V34.9611Z" fill="#1E1E24"/>
</svg>
