<svg width="40" height="41" viewBox="0 0 40 41" fill="none" xmlns="http://www.w3.org/2000/svg">
<rect x="0.5" y="1.3335" width="39" height="39" rx="19.5" stroke="#FDFFFC"/>
<path d="M28.75 20.8334C28.7505 21.0456 28.6961 21.2543 28.5921 21.4393C28.488 21.6242 28.3379 21.7791 28.1562 21.8889L16.9 28.7748C16.7102 28.891 16.4929 28.9545 16.2704 28.9586C16.0479 28.9627 15.8283 28.9073 15.6344 28.7982C15.4423 28.6908 15.2822 28.5342 15.1708 28.3444C15.0593 28.1547 15.0003 27.9386 15 27.7186V13.9482C15.0003 13.7282 15.0593 13.5121 15.1708 13.3224C15.2822 13.1326 15.4423 12.976 15.6344 12.8686C15.8283 12.7595 16.0479 12.7041 16.2704 12.7082C16.4929 12.7123 16.7102 12.7758 16.9 12.892L28.1562 19.7779C28.3379 19.8877 28.488 20.0426 28.5921 20.2275C28.6961 20.4125 28.7505 20.6212 28.75 20.8334Z" fill="#FDFFFC"/>
</svg>
