<svg width="190" height="60" viewBox="0 0 190 60" fill="none" xmlns="http://www.w3.org/2000/svg">
<path d="M23.2423 56L23.2493 49.8846L0 49.8424V22.0252L23.0343 4L46 21.9539L45.9138 49.295L23.2423 56ZM6.04859 43.8635L23.6037 43.8957L23.5919 49.781L39.8794 44.8567L39.942 24.8492L23.0366 11.6331L6.04859 24.9264V43.8635Z" fill="#CF1417"/>
<path d="M86.1153 22.5064L91.9033 42.7967H92.2747L98.5443 20.6797H103.922L96.6889 46.2686H88.7119L83.1473 26.7102H82.7759L77.2113 46.2686H69.2343L62 20.6797H67.3789L73.6485 42.7967H74.0199L79.8079 22.5064H86.1153Z" fill="#CF1417"/>
<path d="M112.829 22.6873C112.829 23.4192 112.575 24.0589 112.068 24.6063C111.561 25.1567 110.887 25.4304 110.048 25.4304C109.206 25.4304 108.532 25.1567 108.025 24.6063C107.518 24.0589 107.264 23.4192 107.264 22.6873C107.264 21.9584 107.518 21.3188 108.025 20.7684C108.532 20.221 109.206 19.9473 110.048 19.9473C110.863 19.9473 111.53 20.221 112.05 20.7684C112.569 21.3188 112.829 21.9584 112.829 22.6873ZM112.645 46.2681H107.451V27.623H112.645V46.2681Z" fill="#FDFFFC"/>
<path d="M140.462 23.7848L123.21 43.5246H140.833V46.2677H116.718V43.1617L133.97 23.4188H117.089V20.6788H140.462V23.7848ZM131.558 15.7431C131.558 16.4749 131.304 17.1146 130.797 17.662C130.29 18.2094 129.617 18.4831 128.777 18.4831C127.935 18.4831 127.261 18.2094 126.754 17.662C126.247 17.1146 125.993 16.4749 125.993 15.7431C125.993 15.0112 126.247 14.3715 126.754 13.8241C127.261 13.2737 127.935 13 128.777 13C129.592 13 130.26 13.2737 130.779 13.8241C131.298 14.3715 131.558 15.0112 131.558 15.7431Z" fill="#CF1417"/>
<path d="M155.86 44.4415C157.071 44.4415 158.203 44.2333 159.254 43.8197C160.305 43.4062 161.337 42.8201 162.352 42.0644L163.834 44.2571C163.366 44.6736 162.817 45.0484 162.186 45.3906C161.555 45.7327 160.872 46.0183 160.145 46.2504C159.414 46.4824 158.653 46.6639 157.862 46.7978C157.071 46.9317 156.28 47.0001 155.489 47.0001C153.732 47.0001 152.132 46.774 150.682 46.3218C149.236 45.8725 148.007 45.215 146.993 44.3493C145.978 43.4835 145.193 42.4184 144.635 41.151C144.079 39.8836 143.801 38.4199 143.801 36.7627C143.801 35.1294 144.067 33.6746 144.598 32.3953C145.13 31.116 145.873 30.042 146.824 29.1762C147.778 28.3134 148.907 27.653 150.22 27.2037C151.531 26.7515 152.977 26.5254 154.559 26.5254C156.045 26.5254 157.443 26.7456 158.753 27.1859C160.063 27.6232 161.202 28.2629 162.168 29.1048C163.131 29.9438 163.898 30.9643 164.465 32.1573C165.036 33.3503 165.32 34.704 165.32 36.2153V38.7739H149.478C149.773 40.797 150.486 42.2459 151.612 43.1235C152.735 44.0012 154.151 44.4415 155.86 44.4415ZM154.559 28.9025C153.844 28.9025 153.176 29.0364 152.557 29.3042C151.938 29.5749 151.401 30.0003 150.942 30.5834C150.486 31.1695 150.115 31.9252 149.831 32.8505C149.544 33.7787 149.39 34.8974 149.366 36.2153H159.755C159.755 34.9479 159.607 33.8501 159.308 32.9249C159.013 31.9996 158.623 31.238 158.14 30.64C157.66 30.042 157.101 29.6046 156.47 29.325C155.839 29.0423 155.202 28.9025 154.559 28.9025Z" fill="#FDFFFC"/>
<path d="M190 46.2668H184.804V34.7502C184.804 32.9948 184.36 31.7364 183.469 30.9658C182.578 30.1982 181.292 29.8145 179.61 29.8145H174.786V46.2668H169.592V27.2559H179.61C183.146 27.2559 185.764 27.8836 187.458 29.1391C189.151 30.3946 190 32.2659 190 34.7502V46.2668Z" fill="#FDFFFC"/>
</svg>
