<svg style="display: none" xmlns="http://www.w3.org/2000/svg">

    <symbol id="logo" viewBox="0 0 270 60" fill="none">
        <path d="M63.2423 56L63.2493 49.8846L40 49.8424V22.0252L63.0343 4L86 21.9539L85.9138 49.295L63.2423 56ZM46.0486 43.8635L63.6037 43.8957L63.5919 49.781L79.8794 44.8567L79.942 24.8492L63.0366 11.6331L46.0486 24.9264V43.8635Z" fill="#CF1417"/>
        <path d="M126.115 22.5061L131.903 42.7963H132.275L138.544 20.6794H143.922L136.689 46.2683H128.712L123.147 26.7099H122.776L117.211 46.2683H109.234L102 20.6794H107.379L113.649 42.7963H114.02L119.808 22.5061H126.115Z" fill="#CF1417"/>
        <path d="M152.829 22.6878C152.829 23.4197 152.575 24.0593 152.068 24.6067C151.561 25.1571 150.887 25.4308 150.048 25.4308C149.206 25.4308 148.532 25.1571 148.025 24.6067C147.518 24.0593 147.264 23.4197 147.264 22.6878C147.264 21.9589 147.518 21.3192 148.025 20.7688C148.532 20.2214 149.206 19.9477 150.048 19.9477C150.863 19.9477 151.53 20.2214 152.05 20.7688C152.569 21.3192 152.829 21.9589 152.829 22.6878ZM152.645 46.2685H147.451V27.6235H152.645V46.2685Z" fill="#1E1E24"/>
        <path d="M180.462 23.7848L163.21 43.5246H180.833V46.2677H156.718V43.1617L173.97 23.4188H157.089V20.6788H180.462V23.7848ZM171.558 15.7431C171.558 16.4749 171.304 17.1146 170.797 17.662C170.29 18.2094 169.617 18.4831 168.777 18.4831C167.935 18.4831 167.261 18.2094 166.754 17.662C166.247 17.1146 165.993 16.4749 165.993 15.7431C165.993 15.0112 166.247 14.3715 166.754 13.8241C167.261 13.2737 167.935 13 168.777 13C169.592 13 170.26 13.2737 170.779 13.8241C171.298 14.3715 171.558 15.0112 171.558 15.7431Z" fill="#CF1417"/>
        <path d="M195.86 44.4415C197.071 44.4415 198.203 44.2332 199.254 43.8197C200.305 43.4061 201.337 42.82 202.352 42.0644L203.834 44.257C203.366 44.6735 202.817 45.0484 202.186 45.3905C201.555 45.7327 200.872 46.0183 200.145 46.2503C199.414 46.4824 198.653 46.6639 197.862 46.7978C197.071 46.9316 196.28 47.0001 195.489 47.0001C193.732 47.0001 192.132 46.774 190.682 46.3217C189.236 45.8725 188.007 45.215 186.993 44.3492C185.978 43.4835 185.193 42.4184 184.635 41.151C184.079 39.8836 183.801 38.4199 183.801 36.7627C183.801 35.1294 184.067 33.6746 184.598 32.3953C185.13 31.116 185.873 30.0419 186.824 29.1762C187.778 28.3134 188.907 27.6529 190.22 27.2037C191.531 26.7515 192.977 26.5254 194.559 26.5254C196.045 26.5254 197.443 26.7455 198.753 27.1858C200.063 27.6232 201.202 28.2628 202.168 29.1048C203.131 29.9438 203.898 30.9642 204.465 32.1573C205.036 33.3503 205.32 34.7039 205.32 36.2153V38.7739H189.478C189.773 40.797 190.486 42.2459 191.612 43.1235C192.735 44.0012 194.151 44.4415 195.86 44.4415ZM194.559 28.9025C193.844 28.9025 193.176 29.0364 192.557 29.3041C191.938 29.5749 191.401 30.0003 190.942 30.5834C190.486 31.1695 190.115 31.9252 189.831 32.8505C189.544 33.7787 189.39 34.8973 189.366 36.2153H199.755C199.755 34.9479 199.607 33.8501 199.308 32.9248C199.013 31.9996 198.623 31.2379 198.14 30.6399C197.66 30.042 197.101 29.6046 196.47 29.325C195.839 29.0423 195.202 28.9025 194.559 28.9025Z" fill="#1E1E24"/>
        <path d="M230 46.2677H224.804V34.7511C224.804 32.9958 224.36 31.7373 223.469 30.9667C222.578 30.1992 221.292 29.8154 219.61 29.8154H214.786V46.2677H209.592V27.2568H219.61C223.146 27.2568 225.764 27.8845 227.458 29.14C229.151 30.3955 230 32.2669 230 34.7511V46.2677Z" fill="#1E1E24"/>
    </symbol>

    <symbol id="logo-mobile" viewBox="0 0 152 46" fill="none">
        <path d="M21.1791 42L21.1842 37.531L4 37.5003V17.1723L21.0253 4L38 17.1201L37.9363 37.1002L21.1791 42ZM8.4707 33.131L21.4462 33.1545L21.4375 37.4554L33.476 33.8568L33.5223 19.2359L21.0271 9.57803L8.4707 19.2924V33.131Z" fill="#CF1417"/>
        <path d="M71.7097 17.4897L75.9603 32.409H76.233L80.8372 16.1465H84.7863L79.4747 34.9619H73.6166L69.5301 20.5807H69.2573L65.1708 34.9619H59.3127L54 16.1465H57.9501L62.5544 32.409H62.8271L67.0777 17.4897H71.7097Z" fill="#CF1417"/>
        <path d="M91.3272 17.6232C91.3272 18.1613 91.141 18.6316 90.7685 19.0342C90.396 19.4389 89.9015 19.6401 89.2851 19.6401C88.6665 19.6401 88.172 19.4389 87.7995 19.0342C87.427 18.6316 87.2407 18.1613 87.2407 17.6232C87.2407 17.0872 87.427 16.6169 87.7995 16.2122C88.172 15.8097 88.6665 15.6084 89.2851 15.6084C89.8838 15.6084 90.3738 15.8097 90.7552 16.2122C91.1365 16.6169 91.3272 17.0872 91.3272 17.6232ZM91.192 34.9619H87.3782V21.2524H91.192V34.9619Z" fill="#1E1E24"/>
        <path d="M111.621 18.43L98.9508 32.9446H111.893V34.9615H94.1836V32.6777L106.853 18.1609H94.4563V16.1461H111.621V18.43ZM105.082 12.517C105.082 13.0551 104.895 13.5254 104.523 13.9279C104.15 14.3305 103.656 14.5317 103.04 14.5317C102.421 14.5317 101.926 14.3305 101.554 13.9279C101.181 13.5254 100.995 13.0551 100.995 12.517C100.995 11.9788 101.181 11.5085 101.554 11.106C101.926 10.7013 102.421 10.5 103.04 10.5C103.638 10.5 104.128 10.7013 104.51 11.106C104.891 11.5085 105.082 11.9788 105.082 12.517Z" fill="#CF1417"/>
        <path d="M122.929 33.6189C123.818 33.6189 124.649 33.4658 125.421 33.1617C126.193 32.8576 126.951 32.4267 127.696 31.8711L128.785 33.4833C128.441 33.7896 128.037 34.0652 127.574 34.3168C127.111 34.5683 126.609 34.7783 126.075 34.949C125.538 35.1196 124.98 35.2531 124.399 35.3515C123.818 35.4499 123.237 35.5002 122.656 35.5002C121.366 35.5002 120.19 35.334 119.126 35.0015C118.064 34.6712 117.161 34.1877 116.416 33.5511C115.671 32.9145 115.095 32.1314 114.685 31.1995C114.277 30.2675 114.073 29.1913 114.073 27.9728C114.073 26.7718 114.268 25.7021 114.658 24.7614C115.048 23.8208 115.594 23.031 116.292 22.3944C116.993 21.76 117.822 21.2744 118.787 20.9441C119.749 20.6116 120.811 20.4453 121.973 20.4453C123.064 20.4453 124.091 20.6072 125.053 20.931C126.015 21.2525 126.851 21.7229 127.561 22.342C128.268 22.9588 128.831 23.7092 129.248 24.5864C129.667 25.4636 129.876 26.459 129.876 27.5703V29.4516H118.241C118.459 30.9391 118.982 32.0045 119.809 32.6498C120.634 33.2952 121.674 33.6189 122.929 33.6189ZM121.973 22.1932C121.448 22.1932 120.958 22.2916 120.503 22.4885C120.048 22.6876 119.654 23.0004 119.317 23.4292C118.982 23.8601 118.709 24.4158 118.501 25.0961C118.29 25.7786 118.177 26.6012 118.159 27.5703H125.789C125.789 26.6384 125.68 25.8311 125.461 25.1508C125.244 24.4705 124.958 23.9104 124.603 23.4707C124.25 23.031 123.84 22.7095 123.377 22.5038C122.913 22.296 122.445 22.1932 121.973 22.1932Z" fill="#1E1E24"/>
        <path d="M148 34.9611H144.184V26.4929C144.184 25.2023 143.858 24.2769 143.204 23.7103C142.55 23.1459 141.605 22.8637 140.37 22.8637H136.827V34.9611H133.013V20.9824H140.37C142.967 20.9824 144.889 21.444 146.133 22.3672C147.377 23.2903 148 24.6663 148 26.4929V34.9611Z" fill="#1E1E24"/>
    </symbol>

    <symbol id="arrow-down" viewBox="0 0 14 14" fill="none">
        <path d="M7.00008 1.16663V12.8333M7.00008 12.8333L12.8334 6.99996M7.00008 12.8333L1.16675 6.99996" stroke="#1E1E24" stroke-width="1.5" stroke-linecap="round" stroke-linejoin="round"/>
    </symbol>

    <symbol id="arrow-left-big" viewBox="0 0 34 14" fill="none">
        <path d="M32.9998 6.99996H1.16659M1.16659 6.99996L6.99992 1.16663M1.16659 6.99996L6.99992 12.8333" stroke="#1E1E24" stroke-width="1.5" stroke-linecap="round" stroke-linejoin="round"/>
    </symbol>

    <symbol id="arrow-left" viewBox="0 0 14 14" fill="none">
        <path d="M12.8334 6.99996H1.16675M1.16675 6.99996L7.00008 12.8333M1.16675 6.99996L7.00008 1.16663" stroke="#1E1E24" stroke-width="1.5" stroke-linecap="round" stroke-linejoin="round"/>
    </symbol>

    <symbol id="arrow-right-big" viewBox="0 0 34 14" fill="none">
        <path d="M1.00024 6.99996H32.8334M32.8334 6.99996L27.0001 1.16663M32.8334 6.99996L27.0001 12.8333" stroke="#1E1E24" stroke-width="1.5" stroke-linecap="round" stroke-linejoin="round"/>
    </symbol>

    <symbol id="arrow-right" viewBox="0 0 14 14" fill="none">
        <path d="M1.16675 6.99996H12.8334M12.8334 6.99996L7.00008 1.16663M12.8334 6.99996L7.00008 12.8333" stroke="#1E1E24" stroke-width="1.5" stroke-linecap="round" stroke-linejoin="round"/>
    </symbol>
    
    <symbol id="arrow-up" viewBox="0 0 14 14" fill="none">
        <path d="M7.00008 12.8333V1.16663M7.00008 1.16663L1.16675 6.99996M7.00008 1.16663L12.8334 6.99996" stroke="#1E1E24" stroke-width="1.5" stroke-linecap="round" stroke-linejoin="round"/>
    </symbol>

    <symbol id="cart" viewBox="0 0 20 20" fill="none">
        <path d="M0 0.833374H3.97L4.42417 2.50004H19.4892L16.4342 11.6667H6.48333L6.06667 13.3334H18.3333V15H3.93333L4.97167 10.8425L2.69667 2.50004H0V0.833374ZM6.47 10H15.2325L17.1775 4.16671H4.87917L6.47 10ZM3.33333 17.5C3.33333 17.058 3.50893 16.6341 3.82149 16.3215C4.13405 16.009 4.55797 15.8334 5 15.8334C5.44203 15.8334 5.86595 16.009 6.17851 16.3215C6.49107 16.6341 6.66667 17.058 6.66667 17.5C6.66667 17.9421 6.49107 18.366 6.17851 18.6786C5.86595 18.9911 5.44203 19.1667 5 19.1667C4.55797 19.1667 4.13405 18.9911 3.82149 18.6786C3.50893 18.366 3.33333 17.9421 3.33333 17.5ZM15 17.5C15 17.058 15.1756 16.6341 15.4882 16.3215C15.8007 16.009 16.2246 15.8334 16.6667 15.8334C17.1087 15.8334 17.5326 16.009 17.8452 16.3215C18.1577 16.6341 18.3333 17.058 18.3333 17.5C18.3333 17.9421 18.1577 18.366 17.8452 18.6786C17.5326 18.9911 17.1087 19.1667 16.6667 19.1667C16.2246 19.1667 15.8007 18.9911 15.4882 18.6786C15.1756 18.366 15 17.9421 15 17.5Z" fill="#1E1E24"/>
    </symbol>

    <symbol id="check-icon" viewBox="0 0 15 11" fill="none">
        <path d="M4.49988 9L1.58322 6.08333C1.50695 6.00613 1.41611 5.94484 1.31598 5.90301C1.21585 5.86118 1.10841 5.83963 0.999885 5.83963C0.891364 5.83963 0.783922 5.86118 0.683788 5.90301C0.583654 5.94484 0.49282 6.00613 0.416551 6.08333C0.339351 6.1596 0.278058 6.25044 0.236225 6.35057C0.194392 6.45071 0.172852 6.55815 0.172852 6.66667C0.172852 6.77519 0.194392 6.88263 0.236225 6.98276C0.278058 7.0829 0.339351 7.17373 0.416551 7.25L3.90822 10.7417C4.23322 11.0667 4.75822 11.0667 5.08322 10.7417L13.9166 1.91667C13.9938 1.8404 14.055 1.74956 14.0969 1.64943C14.1387 1.5493 14.1603 1.44186 14.1603 1.33333C14.1603 1.22481 14.1387 1.11737 14.0969 1.01724C14.055 0.917105 13.9938 0.82627 13.9166 0.750001C13.8403 0.672802 13.7494 0.611508 13.6493 0.569676C13.5492 0.527843 13.4417 0.506302 13.3332 0.506302C13.2247 0.506302 13.1173 0.527843 13.0171 0.569676C12.917 0.611508 12.8262 0.672802 12.7499 0.750001L4.49988 9Z" fill="#1E1E24"/>
    </symbol>

    <symbol id="chevron-down" viewBox="0 0 12 7" fill="none">
        <path d="M1 1L6 6L11 1" stroke="#1E1E24" stroke-width="1.5" stroke-linecap="round" stroke-linejoin="round"/>
    </symbol>

    <symbol id="chevron-up" viewBox="0 0 12 7" fill="none">
        <path d="M11 6L6 1L1 6" stroke="#1E1E24" stroke-width="1.5" stroke-linecap="round" stroke-linejoin="round"/>
    </symbol>

    <symbol id="circle-btn-2" viewBox="0 0 40 40" fill="none">
        <rect x="0.5" y="0.5" width="39" height="39" rx="19.5" stroke="#FDFFFC"/>
        <path d="M15.8753 24.1248L24.1249 15.8752M24.1249 15.8752H15.8753M24.1249 15.8752V24.1248" stroke="#FDFFFC" stroke-width="1.5" stroke-linecap="round" stroke-linejoin="round"/>
    </symbol>

    <symbol id="circle-btn-left" viewBox="0 0 40 40" fill="none">
        <rect x="0.5" y="0.5" width="39" height="39" rx="19.5" stroke="#FDFFFC"/>
        <path d="M25.8332 20H14.1665M14.1665 20L19.9998 25.8333M14.1665 20L19.9998 14.1666" stroke="currentColor" stroke-width="1.5" stroke-linecap="round" stroke-linejoin="round"/>
    </symbol>

    <symbol id="circle-btn-right" viewBox="0 0 40 40" fill="none">
        <rect x="0.5" y="0.5" width="39" height="39" rx="19.5" stroke="#FDFFFC"/>
        <path d="M14.1667 20H25.8334M25.8334 20L20.0001 14.1667M25.8334 20L20.0001 25.8334" stroke="currentColor" stroke-width="1.5" stroke-linecap="round" stroke-linejoin="round"/>
    </symbol>

    <symbol id="close-icon" viewBox="0 0 13 12" fill="none">
        <path d="M1 11L11 1M1 1L11.5 11" stroke="currentColor" stroke-width="1.5" stroke-linecap="round" stroke-linejoin="round"/>
    </symbol>

    <symbol id="deals" viewBox="0 0 18 18" fill="none">
        <path d="M12.125 0.894409L11.715 1.34378C10.7969 2.35441 10.04 2.80628 9.41 3.10191C8.78 3.39691 8.25062 3.48503 7.73062 3.88316C7.17625 4.30816 6.37062 5.12316 6.03125 6.57816C5.30375 6.73691 4.77125 7.01566 4.35125 7.37878C3.93625 7.73753 3.62375 8.14566 3.23875 8.59003C3.23562 8.59503 3.24062 8.60441 3.23875 8.60941C2.68625 9.24441 2.20312 9.92816 1.26562 10.2894L0.875 10.4457V17.125H12.7894C13.4725 17.0882 13.9462 16.615 14.2344 16.1482C14.5219 15.6819 14.6812 15.1769 14.7619 14.7619C14.9694 13.7044 15.3475 10.66 15.3475 10.66L15.3675 10.6019V10.5432C15.3475 10.1207 15.1737 9.76191 14.9569 9.42941L15.66 7.34003L16.7737 5.66003L17.0862 5.21066L16.6756 4.84003L12.5744 1.28503L12.125 0.894409ZM12.1644 2.61316L15.4256 5.44566L14.5662 6.71441L14.5081 6.77378L14.4881 6.87128L13.9219 8.55066C13.6262 8.42878 13.3219 8.34316 12.9844 8.35566H12.945L9 8.37503H8.375V10.7969C8.2875 11.4782 7.90875 11.7419 7.4375 11.93C7.28125 11.9932 7.26187 11.9588 7.125 11.9882V8.35628C7.0225 6.03941 7.8475 5.37253 8.4925 4.87941C8.67062 4.74253 9.1925 4.58441 9.9375 4.23503C10.56 3.94191 11.3337 3.41628 12.1644 2.61316ZM5.91437 7.98441C5.91187 8.12628 5.8675 8.22628 5.875 8.37503V13.375H6.5C6.5 13.375 7.16875 13.3675 7.88687 13.0819C8.60437 12.7963 9.47125 12.1275 9.625 10.9532V9.62503L12.9844 9.60566H13.0037C13.2781 9.59064 13.5472 9.68493 13.7522 9.8679C13.9572 10.0509 14.0814 10.3076 14.0975 10.5819C14.095 10.5919 14.0662 10.8238 14.0587 10.875H11.5V12.125H13.9025C13.8362 12.6082 13.7756 12.9113 13.7069 13.375H11.5V14.625H13.5119C13.438 14.9274 13.3194 15.2171 13.16 15.4844C12.9894 15.7625 12.8425 15.8675 12.7112 15.875H2.125V11.2069C3.13812 10.6694 3.76812 9.89628 4.17562 9.43003C4.59812 8.94628 4.88812 8.58003 5.17187 8.33628C5.3575 8.17753 5.64812 8.08691 5.91437 7.98441Z" fill="#1E1E24"/>
    </symbol>

    <symbol id="desk-logo" viewBox="0 0 208 150" fill="none">
        <path d="M104.242 76L104.249 69.8846L81 69.8424V42.0252L104.034 24L127 41.9539L126.914 69.295L104.242 76ZM87.0486 63.8635L104.604 63.8957L104.592 69.781L120.879 64.8567L120.942 44.8492L104.037 31.6331L87.0486 44.9264V63.8635Z" fill="#CF1417"/>
        <path d="M64.116 101.505L69.9042 121.796H70.2755L76.5453 99.6787H81.9229L74.6899 125.268H66.7126L61.1479 105.709H60.7765L55.2117 125.268H47.2345L40 99.6787H45.3791L51.6488 121.796H52.0202L57.8084 101.505H64.116Z" fill="#CF1417"/>
        <path d="M90.827 101.687C90.827 102.419 90.5733 103.059 90.0661 103.606C89.5588 104.157 88.8855 104.43 88.0461 104.43C87.2037 104.43 86.5304 104.157 86.0231 103.606C85.5158 103.059 85.2622 102.419 85.2622 101.687C85.2622 100.958 85.5158 100.319 86.0231 99.7684C86.5304 99.221 87.2037 98.9473 88.0461 98.9473C88.8613 98.9473 89.5286 99.221 90.048 99.7684C90.5673 100.319 90.827 100.958 90.827 101.687ZM90.6428 125.268H85.4494V106.623H90.6428V125.268Z" fill="#FDFFFC"/>
        <path d="M118.467 102.785L101.214 122.525H118.838V125.268H94.7221V122.162L111.975 102.419H95.0934V99.6789H118.467V102.785ZM109.562 94.7431C109.562 95.475 109.309 96.1146 108.802 96.6621C108.294 97.2095 107.621 97.4832 106.782 97.4832C105.939 97.4832 105.266 97.2095 104.759 96.6621C104.251 96.1146 103.998 95.475 103.998 94.7431C103.998 94.0112 104.251 93.3715 104.759 92.8241C105.266 92.2737 105.939 92 106.782 92C107.597 92 108.264 92.2737 108.783 92.8241C109.303 93.3715 109.562 94.0112 109.562 94.7431Z" fill="#CF1417"/>
        <path d="M133.866 123.442C135.076 123.442 136.209 123.233 137.259 122.82C138.31 122.406 139.343 121.82 140.357 121.065L141.84 123.257C141.372 123.674 140.822 124.049 140.191 124.391C139.56 124.733 138.878 125.019 138.15 125.251C137.419 125.483 136.659 125.664 135.868 125.798C135.076 125.932 134.285 126 133.494 126C131.737 126 130.137 125.774 128.687 125.322C127.241 124.873 126.012 124.215 124.998 123.35C123.983 122.484 123.198 121.419 122.64 120.151C122.084 118.884 121.806 117.42 121.806 115.763C121.806 114.13 122.072 112.675 122.603 111.395C123.135 110.116 123.877 109.042 124.829 108.176C125.783 107.313 126.912 106.653 128.225 106.204C129.536 105.752 130.982 105.525 132.564 105.525C134.05 105.525 135.448 105.746 136.758 106.186C138.069 106.623 139.207 107.263 140.173 108.105C141.136 108.944 141.903 109.964 142.471 111.157C143.042 112.35 143.325 113.704 143.325 115.215V117.774H127.483C127.779 119.797 128.491 121.246 129.617 122.124C130.741 123.001 132.157 123.442 133.866 123.442ZM132.564 107.903C131.849 107.903 131.181 108.036 130.562 108.304C129.943 108.575 129.406 109 128.947 109.584C128.491 110.17 128.12 110.925 127.836 111.851C127.549 112.779 127.395 113.897 127.371 115.215H137.761C137.761 113.948 137.613 112.85 137.314 111.925C137.018 111 136.628 110.238 136.145 109.64C135.665 109.042 135.107 108.605 134.476 108.325C133.845 108.042 133.207 107.903 132.564 107.903Z" fill="#FDFFFC"/>
        <path d="M168 125.268H162.804V113.751C162.804 111.996 162.36 110.737 161.469 109.967C160.578 109.199 159.292 108.815 157.61 108.815H152.785V125.268H147.592V106.257H157.61C161.146 106.257 163.764 106.885 165.458 108.14C167.151 109.396 168 111.267 168 113.751V125.268Z" fill="#FDFFFC"/>
    </symbol>

    <symbol id="distance" viewBox="0 0 18 20" fill="none">
        <path d="M7.31258 7.47915C7.72046 7.07124 7.99821 6.55153 8.11073 5.98576C8.22325 5.41999 8.16547 4.83357 7.9447 4.30063C7.72394 3.7677 7.3501 3.3122 6.87047 2.99172C6.39083 2.67125 5.82693 2.50019 5.25008 2.50019C4.67323 2.50019 4.10934 2.67125 3.6297 2.99172C3.15006 3.3122 2.77623 3.7677 2.55546 4.30063C2.3347 4.83357 2.27692 5.41999 2.38944 5.98576C2.50195 6.55153 2.77971 7.07124 3.18758 7.47915L5.25008 9.54165L7.31258 7.47915ZM5.25008 11.8983L2.00842 8.65832C1.36764 8.01724 0.931335 7.20057 0.75466 6.31154C0.577986 5.42252 0.668877 4.50108 1.01584 3.66371C1.36281 2.82634 1.95027 2.11065 2.70394 1.60712C3.45762 1.10359 4.34368 0.834839 5.25008 0.834839C6.15649 0.834839 7.04254 1.10359 7.79622 1.60712C8.5499 2.11065 9.13736 2.82634 9.48433 3.66371C9.83129 4.50108 9.92218 5.42252 9.74551 6.31154C9.56883 7.20057 9.13253 8.01724 8.49175 8.65832L5.25008 11.8983ZM5.25008 6.66665C4.91856 6.66665 4.60062 6.53496 4.3662 6.30053C4.13178 6.06611 4.00008 5.74817 4.00008 5.41665C4.00008 5.08513 4.13178 4.76719 4.3662 4.53277C4.60062 4.29835 4.91856 4.16665 5.25008 4.16665C5.5816 4.16665 5.89955 4.29835 6.13397 4.53277C6.36839 4.76719 6.50008 5.08513 6.50008 5.41665C6.50008 5.74817 6.36839 6.06611 6.13397 6.30053C5.89955 6.53496 5.5816 6.66665 5.25008 6.66665ZM12.7501 17.0417L14.8126 14.9792C15.2205 14.5712 15.4982 14.0515 15.6107 13.4858C15.7232 12.92 15.6655 12.3336 15.4447 11.8006C15.2239 11.2677 14.8501 10.8122 14.3705 10.4917C13.8908 10.1712 13.3269 10.0002 12.7501 10.0002C12.1732 10.0002 11.6093 10.1712 11.1297 10.4917C10.6501 10.8122 10.2762 11.2677 10.0555 11.8006C9.8347 12.3336 9.77692 12.92 9.88944 13.4858C10.002 14.0515 10.2797 14.5712 10.6876 14.9792L12.7501 17.0417ZM15.9917 16.1583L12.7501 19.3983L9.50842 16.1575C8.86764 15.5164 8.43134 14.6997 8.25466 13.8107C8.07799 12.9217 8.16888 12.0002 8.51584 11.1629C8.86281 10.3255 9.45027 9.60982 10.2039 9.10629C10.9576 8.60276 11.8437 8.33401 12.7501 8.33401C13.6565 8.33401 14.5425 8.60276 15.2962 9.10629C16.0499 9.60982 16.6374 10.3255 16.9843 11.1629C17.3313 12.0002 17.4222 12.9217 17.2455 13.8107C17.0688 14.6997 16.6325 15.5172 15.9917 16.1583ZM12.7501 14.1667C12.4186 14.1667 12.1006 14.035 11.8662 13.8005C11.6318 13.5661 11.5001 13.2482 11.5001 12.9167C11.5001 12.5851 11.6318 12.2672 11.8662 12.0328C12.1006 11.7983 12.4186 11.6667 12.7501 11.6667C13.0816 11.6667 13.3995 11.7983 13.634 12.0328C13.8684 12.2672 14.0001 12.5851 14.0001 12.9167C14.0001 13.2482 13.8684 13.5661 13.634 13.8005C13.3995 14.035 13.0816 14.1667 12.7501 14.1667Z" fill="#1E1E24"/>
    </symbol>

    <symbol id="docs" viewBox="0 0 16 20" fill="none">
        <path d="M4.95257 14.834H10.8814M4.95257 10.8814H10.8814M12.8577 18.7866H2.97628C2.45214 18.7866 1.94946 18.5783 1.57884 18.2077C1.20821 17.8371 1 17.3344 1 16.8103V2.97628C1 2.45214 1.20821 1.94947 1.57884 1.57884C1.94946 1.20821 2.45214 1 2.97628 1H9.89328L14.834 5.94071V16.8103C14.834 17.3344 14.6258 17.8371 14.2551 18.2077C13.8845 18.5783 13.3818 18.7866 12.8577 18.7866Z" stroke="currentColor" stroke-width="1.5" stroke-linecap="round" stroke-linejoin="round"/>
    </symbol>

    <symbol id="done" viewBox="0 0 18 13" fill="none">
        <path d="M6.00006 10.2L2.50006 6.70001C2.40853 6.60737 2.29953 6.53382 2.17937 6.48362C2.05921 6.43342 1.93028 6.40757 1.80006 6.40757C1.66983 6.40757 1.5409 6.43342 1.42074 6.48362C1.30058 6.53382 1.19158 6.60737 1.10006 6.70001C1.00742 6.79153 0.933865 6.90053 0.883666 7.02069C0.833466 7.14085 0.807617 7.26978 0.807617 7.40001C0.807617 7.53023 0.833466 7.65916 0.883666 7.77932C0.933865 7.89948 1.00742 8.00848 1.10006 8.10001L5.29006 12.29C5.68006 12.68 6.31006 12.68 6.70006 12.29L17.3001 1.70001C17.3927 1.60848 17.4662 1.49948 17.5164 1.37932C17.5666 1.25916 17.5925 1.13023 17.5925 1.00001C17.5925 0.869783 17.5666 0.740853 17.5164 0.620692C17.4662 0.500532 17.3927 0.391531 17.3001 0.300008C17.2085 0.207368 17.0995 0.133816 16.9794 0.0836167C16.8592 0.0334172 16.7303 0.00756836 16.6001 0.00756836C16.4698 0.00756836 16.3409 0.0334172 16.2207 0.0836167C16.1006 0.133816 15.9916 0.207368 15.9001 0.300008L6.00006 10.2Z" fill="#1E1E24"/>
    </symbol>

    <symbol id="ellipse" viewBox="0 0 11 10" fill="none">
        <circle cx="5.5" cy="5" r="5" fill="#CF0102"/>
    </symbol>

    <symbol id="error" viewBox="0 0 20 20" fill="none">
        <path d="M10.0001 6.66669V10M10.0001 13.3334H10.0084M18.3334 10C18.3334 14.6024 14.6025 18.3334 10.0001 18.3334C5.39771 18.3334 1.66675 14.6024 1.66675 10C1.66675 5.39765 5.39771 1.66669 10.0001 1.66669C14.6025 1.66669 18.3334 5.39765 18.3334 10Z" stroke="#B3261E" stroke-width="1.5" stroke-linecap="round" stroke-linejoin="round"/>
    </symbol>

    <symbol id="exit" viewBox="0 0 20 20" fill="none">
        <path d="M12.5001 7.49996L7.50008 12.5M7.50008 7.49996L12.5001 12.5M18.3334 9.99996C18.3334 14.6023 14.6025 18.3333 10.0001 18.3333C5.39771 18.3333 1.66675 14.6023 1.66675 9.99996C1.66675 5.39759 5.39771 1.66663 10.0001 1.66663C14.6025 1.66663 18.3334 5.39759 18.3334 9.99996Z" stroke="currentColor" stroke-width="1.5" stroke-linecap="round" stroke-linejoin="round"/>
    </symbol>

    <symbol id="eyes" viewBox="0 0 20 16" fill="none">
        <path d="M5.9375 0.375002C4.52854 0.375002 3.17728 0.934711 2.181 1.931C1.18471 2.92728 0.625 4.27854 0.625 5.6875V10.0625C0.625029 11.1518 0.959896 12.2147 1.58423 13.1073C2.20857 13.9999 3.09219 14.679 4.11539 15.0526C5.13859 15.4262 6.25191 15.4763 7.3045 15.196C8.3571 14.9157 9.29809 14.3186 10 13.4856C10.7019 14.3186 11.6429 14.9157 12.6955 15.196C13.7481 15.4763 14.8614 15.4262 15.8846 15.0526C16.9078 14.679 17.7914 13.9999 18.4158 13.1073C19.0401 12.2147 19.375 11.1518 19.375 10.0625V5.6875C19.375 4.59823 19.0401 3.53529 18.4158 2.6427C17.7914 1.7501 16.9078 1.071 15.8846 0.697394C14.8614 0.32379 13.7481 0.273743 12.6955 0.554033C11.6429 0.834323 10.7019 1.4314 10 2.26438C9.50184 1.67197 8.87999 1.19583 8.17816 0.869422C7.47632 0.543015 6.71152 0.374256 5.9375 0.375002ZM9.27812 3.375C8.92935 4.09593 8.74877 4.88663 8.75 5.6875V10.0625C8.75 10.8913 8.94 11.6756 9.27812 12.375C8.78536 13.0871 8.07795 13.6231 7.25909 13.9048C6.44024 14.1865 5.55279 14.1992 4.72622 13.941C3.89965 13.6828 3.17721 13.1672 2.6643 12.4695C2.15139 11.7718 1.87484 10.9285 1.875 10.0625V9.4375C1.875 9.72477 1.93158 10.0092 2.04151 10.2746C2.15145 10.54 2.31258 10.7812 2.5157 10.9843C2.71883 11.1874 2.95998 11.3486 3.22538 11.4585C3.49078 11.5684 3.77523 11.625 4.0625 11.625C4.34977 11.625 4.63422 11.5684 4.89962 11.4585C5.16502 11.3486 5.40617 11.1874 5.6093 10.9843C5.81242 10.7812 5.97355 10.54 6.08349 10.2746C6.19342 10.0092 6.25 9.72477 6.25 9.4375V6.3125C6.25 6.02524 6.19342 5.74078 6.08349 5.47538C5.97355 5.20998 5.81242 4.96883 5.6093 4.76571C5.40617 4.56258 5.16502 4.40145 4.89962 4.29152C4.63422 4.18158 4.34977 4.125 4.0625 4.125C3.77523 4.125 3.49078 4.18158 3.22538 4.29152C2.95998 4.40145 2.71883 4.56258 2.5157 4.76571C2.31258 4.96883 2.15145 5.20998 2.04151 5.47538C1.93158 5.74078 1.875 6.02524 1.875 6.3125V5.6875C1.87484 4.82155 2.15139 3.97819 2.6643 3.28048C3.17721 2.58277 3.89965 2.06721 4.72622 1.80902C5.55279 1.55083 6.44024 1.56351 7.25909 1.84522C8.07795 2.12693 8.78536 2.66292 9.27812 3.375ZM10 5.6875C10 4.61006 10.428 3.57675 11.1899 2.81488C11.9517 2.05301 12.9851 1.625 14.0625 1.625C15.1399 1.625 16.1733 2.05301 16.9351 2.81488C17.697 3.57675 18.125 4.61006 18.125 5.6875V10.0625C18.125 11.1399 17.697 12.1733 16.9351 12.9351C16.1733 13.697 15.1399 14.125 14.0625 14.125C12.9851 14.125 11.9517 13.697 11.1899 12.9351C10.428 12.1733 10 11.1399 10 10.0625V9.4375C10 10.0177 10.2305 10.5741 10.6407 10.9843C11.0509 11.3945 11.6073 11.625 12.1875 11.625C12.7677 11.625 13.3241 11.3945 13.7343 10.9843C14.1445 10.5741 14.375 10.0177 14.375 9.4375V6.3125C14.375 5.73234 14.1445 5.17594 13.7343 4.76571C13.3241 4.35547 12.7677 4.125 12.1875 4.125C11.6073 4.125 11.0509 4.35547 10.6407 4.76571C10.2305 5.17594 10 5.73234 10 6.3125V5.6875ZM5.4225 6.53813C5.19062 6.73188 4.80375 6.64875 4.55813 6.35438C4.3125 6.05938 4.30188 5.66375 4.53375 5.47063C4.76625 5.27688 5.15312 5.35938 5.39875 5.65438C5.64375 5.94938 5.655 6.345 5.4225 6.53813ZM13.56 5.65438C13.8056 5.94938 13.8162 6.345 13.585 6.53813C13.3525 6.73188 12.965 6.64875 12.72 6.35438C12.4744 6.05938 12.4637 5.66375 12.6956 5.47063C12.9281 5.27688 13.315 5.35938 13.5606 5.65438" fill="#1E1E24"/>
    </symbol>

    <symbol id="facebook-dark" viewBox="0 0 30 30" fill="none">
        <path fill-rule="evenodd" clip-rule="evenodd" d="M3.00244 15C3.00266 12.6907 3.66921 10.4305 4.92212 8.49057C6.17503 6.55068 7.96108 5.01351 10.066 4.06352C12.1708 3.11352 14.5051 2.79106 16.7887 3.13481C19.0723 3.47856 21.2082 4.47393 22.9401 6.00149C24.672 7.52904 25.9264 9.52389 26.5527 11.7467C27.179 13.9694 27.1506 16.3257 26.471 18.5328C25.7913 20.7398 24.4893 22.7039 22.7211 24.1893C20.9529 25.6747 18.7936 26.6183 16.5024 26.907V18H19.5024C19.9003 18 20.2818 17.842 20.5631 17.5607C20.8444 17.2794 21.0024 16.8978 21.0024 16.5C21.0024 16.1022 20.8444 15.7206 20.5631 15.4393C20.2818 15.158 19.9003 15 19.5024 15H16.5024V12C16.5024 11.6022 16.6605 11.2206 16.9418 10.9393C17.2231 10.658 17.6046 10.5 18.0024 10.5H18.7524C19.1503 10.5 19.5318 10.342 19.8131 10.0607C20.0944 9.77935 20.2524 9.39782 20.2524 9C20.2524 8.60217 20.0944 8.22064 19.8131 7.93934C19.5318 7.65803 19.1503 7.5 18.7524 7.5H18.0024C16.809 7.5 15.6644 7.97411 14.8205 8.81802C13.9765 9.66193 13.5024 10.8065 13.5024 12V15H10.5024C10.1046 15 9.72309 15.158 9.44178 15.4393C9.16048 15.7206 9.00244 16.1022 9.00244 16.5C9.00244 16.8978 9.16048 17.2794 9.44178 17.5607C9.72309 17.842 10.1046 18 10.5024 18H13.5024V26.907C10.6025 26.5413 7.93567 25.1299 6.00245 22.9376C4.06922 20.7453 3.00249 17.9229 3.00244 15ZM15.0024 30C23.2869 30 30.0024 23.2845 30.0024 15C30.0024 6.7155 23.2869 0 15.0024 0C6.71794 0 0.00244141 6.7155 0.00244141 15C0.00244141 23.2845 6.71794 30 15.0024 30Z" fill="currentColor"/>
    </symbol>

    <symbol id="home" viewBox="0 0 18 20" fill="none">
        <path d="M6.5 18.3333V9.99996H11.5V18.3333M1.5 7.49996L9 1.66663L16.5 7.49996V16.6666C16.5 17.1087 16.3244 17.5326 16.0118 17.8451C15.6993 18.1577 15.2754 18.3333 14.8333 18.3333H3.16667C2.72464 18.3333 2.30072 18.1577 1.98816 17.8451C1.67559 17.5326 1.5 17.1087 1.5 16.6666V7.49996Z" stroke="currentColor" stroke-width="1.5" stroke-linecap="round" stroke-linejoin="round"/>
    </symbol>

    <symbol id="instagram-dark" viewBox="0 0 27 27" fill="none">
        <path d="M7.83 0H19.17C23.49 0 27 3.51 27 7.83V19.17C27 21.2466 26.1751 23.2382 24.7066 24.7066C23.2382 26.1751 21.2466 27 19.17 27H7.83C3.51 27 0 23.49 0 19.17V7.83C0 5.75336 0.824944 3.76176 2.29335 2.29335C3.76176 0.824944 5.75336 0 7.83 0ZM7.56 2.7C6.27105 2.7 5.03489 3.21203 4.12346 4.12346C3.21203 5.03489 2.7 6.27105 2.7 7.56V19.44C2.7 22.1265 4.8735 24.3 7.56 24.3H19.44C20.729 24.3 21.9651 23.788 22.8765 22.8765C23.788 21.9651 24.3 20.729 24.3 19.44V7.56C24.3 4.8735 22.1265 2.7 19.44 2.7H7.56ZM20.5875 4.725C21.0351 4.725 21.4643 4.90279 21.7807 5.21926C22.0972 5.53573 22.275 5.96495 22.275 6.4125C22.275 6.86005 22.0972 7.28928 21.7807 7.60574C21.4643 7.92221 21.0351 8.1 20.5875 8.1C20.1399 8.1 19.7107 7.92221 19.3943 7.60574C19.0778 7.28928 18.9 6.86005 18.9 6.4125C18.9 5.96495 19.0778 5.53573 19.3943 5.21926C19.7107 4.90279 20.1399 4.725 20.5875 4.725ZM13.5 6.75C15.2902 6.75 17.0071 7.46116 18.273 8.72703C19.5388 9.9929 20.25 11.7098 20.25 13.5C20.25 15.2902 19.5388 17.0071 18.273 18.273C17.0071 19.5388 15.2902 20.25 13.5 20.25C11.7098 20.25 9.9929 19.5388 8.72703 18.273C7.46116 17.0071 6.75 15.2902 6.75 13.5C6.75 11.7098 7.46116 9.9929 8.72703 8.72703C9.9929 7.46116 11.7098 6.75 13.5 6.75ZM13.5 9.45C12.4259 9.45 11.3957 9.87669 10.6362 10.6362C9.87669 11.3957 9.45 12.4259 9.45 13.5C9.45 14.5741 9.87669 15.6043 10.6362 16.3638C11.3957 17.1233 12.4259 17.55 13.5 17.55C14.5741 17.55 15.6043 17.1233 16.3638 16.3638C17.1233 15.6043 17.55 14.5741 17.55 13.5C17.55 12.4259 17.1233 11.3957 16.3638 10.6362C15.6043 9.87669 14.5741 9.45 13.5 9.45Z" fill="currentColor"/>
    </symbol>

    <symbol id="language" viewBox="0 0 16 16" fill="none">
        <path d="M8 15.5C6.96778 15.5 5.99556 15.3028 5.08333 14.9083C4.17111 14.5139 3.37667 13.9778 2.7 13.3C2.02222 12.6239 1.48611 11.8294 1.09167 10.9167C0.697222 10.0044 0.5 9.03222 0.5 8C0.5 6.965 0.697222 5.99194 1.09167 5.08083C1.48667 4.16972 2.02278 3.37583 2.7 2.69917C3.37611 2.0225 4.17056 1.48694 5.08333 1.0925C5.99556 0.6975 6.96778 0.5 8 0.5C9.035 0.5 10.0081 0.697222 10.9192 1.09167C11.8303 1.48667 12.6242 2.02278 13.3008 2.7C13.9775 3.37667 14.5131 4.17028 14.9075 5.08083C15.3025 5.99194 15.5 6.965 15.5 8C15.5 9.03222 15.3028 10.0044 14.9083 10.9167C14.5139 11.8289 13.9778 12.6233 13.3 13.3C12.6233 13.9772 11.8297 14.5133 10.9192 14.9083C10.0081 15.3028 9.035 15.5 8 15.5ZM8 14.6733C8.48889 14.045 8.89222 13.4281 9.21 12.8225C9.52722 12.2169 9.78528 11.5392 9.98417 10.7892H6.01583C6.23583 11.5814 6.49917 12.2803 6.80583 12.8858C7.1125 13.4914 7.51056 14.0872 8 14.6733ZM6.93917 14.5483C6.55028 14.09 6.19528 13.5233 5.87417 12.8483C5.55306 12.1739 5.31417 11.4872 5.1575 10.7883H1.96083C2.43861 11.825 3.11556 12.675 3.99167 13.3383C4.86833 14.0017 5.85056 14.405 6.93833 14.5483M9.06 14.5483C10.1478 14.405 11.13 14.0017 12.0067 13.3383C12.8833 12.675 13.5603 11.825 14.0375 10.7883H10.8425C10.6314 11.4978 10.3656 12.19 10.045 12.865C9.72389 13.5394 9.39556 14.1006 9.06 14.5483ZM1.62083 9.955H4.98333C4.92 9.61333 4.87556 9.28028 4.85 8.95583C4.82333 8.63139 4.81 8.31278 4.81 8C4.81 7.68722 4.82306 7.36861 4.84917 7.04417C4.87528 6.71972 4.91972 6.38639 4.9825 6.04417H1.6225C1.53194 6.33306 1.46111 6.64778 1.41 6.98833C1.35889 7.32889 1.33333 7.66611 1.33333 8C1.33333 8.33444 1.35861 8.67167 1.40917 9.01167C1.46028 9.35222 1.53111 9.66667 1.62167 9.955M5.8175 9.955H10.1825C10.2458 9.61333 10.2903 9.28556 10.3158 8.97167C10.3425 8.65833 10.3558 8.33444 10.3558 8C10.3558 7.66556 10.3428 7.34167 10.3167 7.02833C10.2906 6.71444 10.2461 6.38667 10.1833 6.045H5.81667C5.75389 6.38667 5.70944 6.71444 5.68333 7.02833C5.65722 7.34167 5.64417 7.66556 5.64417 8C5.64417 8.33444 5.65722 8.65833 5.68333 8.97167C5.70944 9.28556 5.75472 9.61333 5.8175 9.955ZM11.0167 9.955H14.3783C14.4689 9.66611 14.5397 9.35167 14.5908 9.01167C14.6419 8.67167 14.6672 8.33444 14.6667 8C14.6667 7.66556 14.6414 7.32833 14.5908 6.98833C14.5397 6.64778 14.4689 6.33333 14.3783 6.045H11.0158C11.0792 6.38667 11.1236 6.71972 11.1492 7.04417C11.1758 7.36861 11.1892 7.68722 11.1892 8C11.1892 8.31278 11.1761 8.63139 11.15 8.95583C11.1239 9.28028 11.0794 9.61361 11.0167 9.95583M10.8433 5.21167H14.0383C13.55 4.15389 12.8811 3.30389 12.0317 2.66167C11.1817 2.01944 10.1914 1.61111 9.06083 1.43667C9.44972 1.94778 9.79944 2.53278 10.11 3.19167C10.42 3.85 10.6644 4.52333 10.8433 5.21167ZM6.01583 5.21167H9.98417C9.76417 4.42944 9.49278 3.72222 9.17 3.09C8.84778 2.45722 8.45778 1.86944 8 1.32667C7.54278 1.86944 7.15278 2.45722 6.83 3.09C6.50778 3.72222 6.23639 4.42944 6.01583 5.21167ZM1.96167 5.21167H5.15667C5.33556 4.52333 5.58 3.85 5.89 3.19167C6.20056 2.53278 6.55028 1.9475 6.93917 1.43583C5.79806 1.61083 4.80528 2.02194 3.96083 2.66917C3.11639 3.31694 2.44972 4.16417 1.96083 5.21083" fill="currentColor"/>
    </symbol>

    <symbol id="laws" viewBox="0 0 20 18" fill="none">
        <path d="M10.625 1.29163V2.74996H12.2708C12.5633 2.74996 12.8492 2.83829 13.0908 3.00246L14.505 3.96413C14.5392 3.98746 14.58 3.99996 14.6217 3.99996H18.04C18.2058 3.99996 18.3647 4.06581 18.4819 4.18302C18.5991 4.30023 18.665 4.4592 18.665 4.62496C18.665 4.79072 18.5991 4.94969 18.4819 5.0669C18.3647 5.18411 18.2058 5.24996 18.04 5.24996H16.725L19.53 11.65C19.5863 11.7779 19.598 11.921 19.5632 12.0564C19.5284 12.1918 19.4493 12.3116 19.3383 12.3966C19.255 12.4583 19.1692 12.5158 19.08 12.5683C18.8686 12.6944 18.6486 12.8055 18.4217 12.9008C17.6679 13.216 16.8587 13.3772 16.0417 13.375C15.225 13.3775 14.416 13.2166 13.6625 12.9016C13.4354 12.8063 13.2154 12.6949 13.0042 12.5683C12.9157 12.5171 12.8303 12.4609 12.7483 12.4L12.7442 12.3966C12.6332 12.3116 12.554 12.1918 12.5193 12.0564C12.4845 11.921 12.4962 11.7779 12.5525 11.65L15.3592 5.24996H14.6208C14.3283 5.24996 14.0425 5.16163 13.8008 4.99746L12.3867 4.03579C12.3523 4.01228 12.3116 3.99978 12.27 3.99996H10.625V16.0833H14.3642C14.5299 16.0833 14.6889 16.1491 14.8061 16.2663C14.9233 16.3836 14.9892 16.5425 14.9892 16.7083C14.9892 16.8741 14.9233 17.033 14.8061 17.1502C14.6889 17.2674 14.5299 17.3333 14.3642 17.3333H5.63582C5.47006 17.3333 5.31109 17.2674 5.19388 17.1502C5.07667 17.033 5.01082 16.8741 5.01082 16.7083C5.01082 16.5425 5.07667 16.3836 5.19388 16.2663C5.31109 16.1491 5.47006 16.0833 5.63582 16.0833H9.37499V3.99996H7.72915C7.68755 3.99994 7.64691 4.01242 7.61249 4.03579L6.19916 4.99746C5.95749 5.16163 5.67166 5.24996 5.37916 5.24996H4.64082L7.44749 11.65C7.50181 11.7743 7.5142 11.9129 7.48278 12.0449C7.45136 12.1769 7.37784 12.2951 7.27332 12.3816C7.20666 12.4358 7.13999 12.4866 7.01499 12.5675C6.80424 12.7039 6.58363 12.8245 6.35499 12.9283C5.60234 13.2702 4.785 13.4464 3.95832 13.445C3.13162 13.4467 2.31422 13.2705 1.56166 12.9283C1.33301 12.8245 1.11241 12.7039 0.901655 12.5675C0.812535 12.5108 0.726574 12.4493 0.644155 12.3833C0.54047 12.2958 0.467537 12.1774 0.436045 12.0454C0.404552 11.9134 0.416156 11.7749 0.469155 11.65L3.27499 5.24996H1.96082C1.79506 5.24996 1.63609 5.18411 1.51888 5.0669C1.40167 4.94969 1.33582 4.79072 1.33582 4.62496C1.33582 4.4592 1.40167 4.30023 1.51888 4.18302C1.63609 4.06581 1.79506 3.99996 1.96082 3.99996H5.37916C5.42082 3.99996 5.46166 3.98746 5.49666 3.96413L6.90916 3.00246C7.15082 2.83746 7.43749 2.74996 7.72999 2.74996H9.37499V1.29163C9.37499 1.12587 9.44084 0.966894 9.55805 0.849684C9.67526 0.732474 9.83423 0.666626 9.99999 0.666626C10.1657 0.666626 10.3247 0.732474 10.4419 0.849684C10.5591 0.966894 10.625 1.12587 10.625 1.29163ZM1.82749 11.665C2.48336 12.0141 3.21531 12.1959 3.95832 12.1941C4.70134 12.1959 5.43329 12.0141 6.08916 11.665L3.95832 6.80663L1.82749 11.665ZM13.9192 11.645C13.9875 11.6783 14.0642 11.7141 14.1483 11.75C14.59 11.9358 15.2358 12.125 16.0417 12.125C16.7763 12.127 17.5019 11.9629 18.1642 11.645L16.0417 6.80579L13.9192 11.645Z" fill="currentColor"/>
    </symbol>

    <symbol id="location" viewBox="0 0 20 20" fill="none">
        <path d="M10 11.25C9.38193 11.25 8.77775 11.0667 8.26384 10.7233C7.74994 10.38 7.3494 9.89191 7.11288 9.32089C6.87635 8.74987 6.81447 8.12154 6.93505 7.51534C7.05563 6.90915 7.35325 6.35233 7.79029 5.91529C8.22733 5.47825 8.78415 5.18063 9.39034 5.06005C9.99654 4.93947 10.6249 5.00135 11.1959 5.23788C11.7669 5.4744 12.255 5.87494 12.5983 6.38884C12.9417 6.90275 13.125 7.50693 13.125 8.125C13.124 8.9535 12.7945 9.74778 12.2086 10.3336C11.6228 10.9195 10.8285 11.249 10 11.25ZM10 6.25C9.62916 6.25 9.26665 6.35997 8.95831 6.566C8.64997 6.77202 8.40964 7.06486 8.26773 7.40747C8.12581 7.75008 8.08868 8.12708 8.16103 8.4908C8.23338 8.85451 8.41195 9.1886 8.67418 9.45083C8.9364 9.71305 9.27049 9.89163 9.63421 9.96397C9.99792 10.0363 10.3749 9.99919 10.7175 9.85728C11.0601 9.71536 11.353 9.47504 11.559 9.1667C11.765 8.85835 11.875 8.49584 11.875 8.125C11.8745 7.62787 11.6768 7.15125 11.3253 6.79972C10.9738 6.4482 10.4971 6.2505 10 6.25Z" fill="currentColor"/>
        <path d="M10 18.75L4.72751 12.5319C4.65425 12.4385 4.58174 12.3445 4.51001 12.25C3.60937 11.0636 3.12282 9.61452 3.12501 8.125C3.12501 6.30164 3.84934 4.55295 5.13865 3.26364C6.42796 1.97433 8.17664 1.25 10 1.25C11.8234 1.25 13.5721 1.97433 14.8614 3.26364C16.1507 4.55295 16.875 6.30164 16.875 8.125C16.8772 9.61384 16.3909 11.0623 15.4906 12.2481L15.49 12.25C15.49 12.25 15.3025 12.4963 15.2744 12.5294L10 18.75ZM5.50813 11.4969C5.50813 11.4969 5.65376 11.6894 5.68688 11.7306L10 16.8175L14.3188 11.7237C14.3463 11.6894 14.4925 11.4956 14.4931 11.495C15.2289 10.5257 15.6265 9.34189 15.625 8.125C15.625 6.63316 15.0324 5.20242 13.9775 4.14752C12.9226 3.09263 11.4918 2.5 10 2.5C8.50816 2.5 7.07742 3.09263 6.02253 4.14752C4.96764 5.20242 4.37501 6.63316 4.37501 8.125C4.3737 9.34265 4.77174 10.5271 5.50813 11.4969Z" fill="currentColor"/>
    </symbol>

    <symbol id="menu" viewBox="0 0 18 12" fill="none">
        <path d="M1.5 6H16.5M1.5 1H16.5M1.5 11H16.5" stroke="currentColor" stroke-width="1.5" stroke-linecap="round" stroke-linejoin="round"/>
    </symbol>

    <symbol id="people" viewBox="0 0 20 18" fill="none">
        <path d="M13.5867 1.91667C14.0181 2.17592 14.375 2.54244 14.6226 2.98054C14.8703 3.41864 15.0003 3.9134 15.0001 4.41667C15.0003 4.91993 14.8703 5.41469 14.6226 5.85279C14.375 6.29089 14.0181 6.65741 13.5867 6.91667M18.3334 16.5V16C18.3334 14.1333 18.3334 13.2 17.9701 12.4867C17.6505 11.8595 17.1406 11.3496 16.5134 11.03M7.91675 7.33333C8.29977 7.33333 8.67904 7.25789 9.03291 7.11132C9.38677 6.96474 9.7083 6.7499 9.97914 6.47906C10.25 6.20822 10.4648 5.88669 10.6114 5.53283C10.758 5.17896 10.8334 4.79969 10.8334 4.41667C10.8334 4.03364 10.758 3.65437 10.6114 3.30051C10.4648 2.94664 10.25 2.62511 9.97914 2.35427C9.7083 2.08343 9.38677 1.86859 9.03291 1.72202C8.67904 1.57544 8.29977 1.5 7.91675 1.5C7.1432 1.5 6.40133 1.80729 5.85435 2.35427C5.30737 2.90125 5.00008 3.64312 5.00008 4.41667C5.00008 5.19021 5.30737 5.93208 5.85435 6.47906C6.40133 7.02604 7.1432 7.33333 7.91675 7.33333ZM1.66675 16V16.5H14.1667V16C14.1667 14.1333 14.1667 13.2 13.8034 12.4867C13.4838 11.8595 12.9739 11.3496 12.3467 11.03C11.6334 10.6667 10.7001 10.6667 8.83341 10.6667H7.00008C5.13341 10.6667 4.20008 10.6667 3.48675 11.03C2.85957 11.3496 2.34965 11.8595 2.03008 12.4867C1.66675 13.2 1.66675 14.1333 1.66675 16Z" stroke="#1E1E24" stroke-width="2" stroke-linecap="round" stroke-linejoin="round"/>
    </symbol>

    <symbol id="phone" viewBox="0 0 18 18" fill="none">
        <path fill-rule="evenodd" clip-rule="evenodd" d="M5.80992 12.1909C9.01408 15.3951 11.9833 15.7459 12.8549 15.7784C13.9083 15.8167 14.9833 14.9567 15.4483 14.0759C14.7066 13.2059 13.7408 12.5309 12.6833 11.7992C12.0591 12.4226 11.2899 13.5809 10.2658 13.1659C9.68325 12.9317 8.24492 12.2692 6.98825 11.0117C5.73075 9.75506 5.06909 8.31672 4.83325 7.73506C4.41825 6.70922 5.57992 5.93839 6.20409 5.31422C5.47242 4.23922 4.80909 3.24839 3.94075 2.54422C3.04742 3.01089 2.18242 4.07756 2.22159 5.14506C2.25408 6.01672 2.60492 8.98589 5.80992 12.1909ZM12.7933 17.4442C11.5933 17.4001 8.19242 16.9301 4.63075 13.3692C1.06992 9.80756 0.600752 6.40756 0.555752 5.20672C0.489085 3.37672 1.89075 1.59922 3.50992 0.905058C3.7049 0.820863 3.91842 0.788808 4.12953 0.812037C4.34064 0.835266 4.54208 0.912982 4.71409 1.03756C6.05409 2.01506 6.97825 3.49589 7.77242 4.65589C7.93763 4.8971 8.01331 5.18848 7.98637 5.47959C7.95944 5.77071 7.83158 6.04325 7.62492 6.25006L6.49492 7.38089C6.75742 7.96006 7.29158 8.95839 8.16658 9.83339C9.04158 10.7084 10.0399 11.2426 10.6199 11.5051L11.7491 10.3751C11.9567 10.168 12.2304 10.0403 12.5224 10.0142C12.8145 9.98819 13.1065 10.0655 13.3474 10.2326C14.5308 11.0526 15.9208 11.9634 16.9341 13.2609C17.0688 13.4341 17.1545 13.6404 17.1822 13.8581C17.2099 14.0758 17.1786 14.2969 17.0916 14.4984C16.3941 16.1259 14.6291 17.5117 12.7933 17.4442Z" fill="#1E1E24"/>
    </symbol>

    <symbol id="play" viewBox="0 0 40 41" fill="none">
        <rect x="0.5" y="1.3335" width="39" height="39" rx="19.5" stroke="#FDFFFC"/>
        <path d="M28.75 20.8334C28.7505 21.0456 28.6961 21.2543 28.5921 21.4393C28.488 21.6242 28.3379 21.7791 28.1562 21.8889L16.9 28.7748C16.7102 28.891 16.4929 28.9545 16.2704 28.9586C16.0479 28.9627 15.8283 28.9073 15.6344 28.7982C15.4423 28.6908 15.2822 28.5342 15.1708 28.3444C15.0593 28.1547 15.0003 27.9386 15 27.7186V13.9482C15.0003 13.7282 15.0593 13.5121 15.1708 13.3224C15.2822 13.1326 15.4423 12.976 15.6344 12.8686C15.8283 12.7595 16.0479 12.7041 16.2704 12.7082C16.4929 12.7123 16.7102 12.7758 16.9 12.892L28.1562 19.7779C28.3379 19.8877 28.488 20.0426 28.5921 20.2275C28.6961 20.4125 28.7505 20.6212 28.75 20.8334Z" fill="#FDFFFC"/>
    </symbol>

    <symbol id="speed" viewBox="0 0 14 16" fill="none">
        <path d="M3.06083 15.0325L6.42667 9.1825L0 8.42917L9.375 0H10.3042L6.85917 5.865L13.3333 6.6025L3.95833 15.0317L3.06083 15.0325ZM5.42667 12.53L11.4083 7.2225L5.51667 6.5625L7.93333 2.47417L1.925 7.7975L7.79667 8.50167L5.42667 12.53Z" fill="#1E1E24"/>
    </symbol>

    <symbol id="tablet-logo" viewBox="0 0 190 60" fill="none">
        <path d="M23.2423 56L23.2493 49.8846L0 49.8424V22.0252L23.0343 4L46 21.9539L45.9138 49.295L23.2423 56ZM6.04859 43.8635L23.6037 43.8957L23.5919 49.781L39.8794 44.8567L39.942 24.8492L23.0366 11.6331L6.04859 24.9264V43.8635Z" fill="#CF1417"/>
        <path d="M86.1153 22.5064L91.9033 42.7967H92.2747L98.5443 20.6797H103.922L96.6889 46.2686H88.7119L83.1473 26.7102H82.7759L77.2113 46.2686H69.2343L62 20.6797H67.3789L73.6485 42.7967H74.0199L79.8079 22.5064H86.1153Z" fill="#CF1417"/>
        <path d="M112.829 22.6873C112.829 23.4192 112.575 24.0589 112.068 24.6063C111.561 25.1567 110.887 25.4304 110.048 25.4304C109.206 25.4304 108.532 25.1567 108.025 24.6063C107.518 24.0589 107.264 23.4192 107.264 22.6873C107.264 21.9584 107.518 21.3188 108.025 20.7684C108.532 20.221 109.206 19.9473 110.048 19.9473C110.863 19.9473 111.53 20.221 112.05 20.7684C112.569 21.3188 112.829 21.9584 112.829 22.6873ZM112.645 46.2681H107.451V27.623H112.645V46.2681Z" fill="#FDFFFC"/>
        <path d="M140.462 23.7848L123.21 43.5246H140.833V46.2677H116.718V43.1617L133.97 23.4188H117.089V20.6788H140.462V23.7848ZM131.558 15.7431C131.558 16.4749 131.304 17.1146 130.797 17.662C130.29 18.2094 129.617 18.4831 128.777 18.4831C127.935 18.4831 127.261 18.2094 126.754 17.662C126.247 17.1146 125.993 16.4749 125.993 15.7431C125.993 15.0112 126.247 14.3715 126.754 13.8241C127.261 13.2737 127.935 13 128.777 13C129.592 13 130.26 13.2737 130.779 13.8241C131.298 14.3715 131.558 15.0112 131.558 15.7431Z" fill="#CF1417"/>
        <path d="M155.86 44.4415C157.071 44.4415 158.203 44.2333 159.254 43.8197C160.305 43.4062 161.337 42.8201 162.352 42.0644L163.834 44.2571C163.366 44.6736 162.817 45.0484 162.186 45.3906C161.555 45.7327 160.872 46.0183 160.145 46.2504C159.414 46.4824 158.653 46.6639 157.862 46.7978C157.071 46.9317 156.28 47.0001 155.489 47.0001C153.732 47.0001 152.132 46.774 150.682 46.3218C149.236 45.8725 148.007 45.215 146.993 44.3493C145.978 43.4835 145.193 42.4184 144.635 41.151C144.079 39.8836 143.801 38.4199 143.801 36.7627C143.801 35.1294 144.067 33.6746 144.598 32.3953C145.13 31.116 145.873 30.042 146.824 29.1762C147.778 28.3134 148.907 27.653 150.22 27.2037C151.531 26.7515 152.977 26.5254 154.559 26.5254C156.045 26.5254 157.443 26.7456 158.753 27.1859C160.063 27.6232 161.202 28.2629 162.168 29.1048C163.131 29.9438 163.898 30.9643 164.465 32.1573C165.036 33.3503 165.32 34.704 165.32 36.2153V38.7739H149.478C149.773 40.797 150.486 42.2459 151.612 43.1235C152.735 44.0012 154.151 44.4415 155.86 44.4415ZM154.559 28.9025C153.844 28.9025 153.176 29.0364 152.557 29.3042C151.938 29.5749 151.401 30.0003 150.942 30.5834C150.486 31.1695 150.115 31.9252 149.831 32.8505C149.544 33.7787 149.39 34.8974 149.366 36.2153H159.755C159.755 34.9479 159.607 33.8501 159.308 32.9249C159.013 31.9996 158.623 31.238 158.14 30.64C157.66 30.042 157.101 29.6046 156.47 29.325C155.839 29.0423 155.202 28.9025 154.559 28.9025Z" fill="#FDFFFC"/>
        <path d="M190 46.2668H184.804V34.7502C184.804 32.9948 184.36 31.7364 183.469 30.9658C182.578 30.1982 181.292 29.8145 179.61 29.8145H174.786V46.2668H169.592V27.2559H179.61C183.146 27.2559 185.764 27.8836 187.458 29.1391C189.151 30.3946 190 32.2659 190 34.7502V46.2668Z" fill="#FDFFFC"/>
    </symbol>

    <symbol id="telegram-dark" viewBox="0 0 20 20" fill="none">
        <path d="M10 0C4.48 0 0 4.48 0 10C0 15.52 4.48 20 10 20C15.52 20 20 15.52 20 10C20 4.48 15.52 0 10 0ZM14.64 6.8C14.49 8.38 13.84 12.22 13.51 13.99C13.37 14.74 13.09 14.99 12.83 15.02C12.25 15.07 11.81 14.64 11.25 14.27C10.37 13.69 9.87 13.33 9.02 12.77C8.03 12.12 8.67 11.76 9.24 11.18C9.39 11.03 11.95 8.7 12 8.49C12.0069 8.45819 12.006 8.42517 11.9973 8.3938C11.9886 8.36244 11.9724 8.33367 11.95 8.31C11.89 8.26 11.81 8.28 11.74 8.29C11.65 8.31 10.25 9.24 7.52 11.08C7.12 11.35 6.76 11.49 6.44 11.48C6.08 11.47 5.4 11.28 4.89 11.11C4.26 10.91 3.77 10.8 3.81 10.45C3.83 10.27 4.08 10.09 4.55 9.9C7.47 8.63 9.41 7.79 10.38 7.39C13.16 6.23 13.73 6.03 14.11 6.03C14.19 6.03 14.38 6.05 14.5 6.15C14.6 6.23 14.63 6.34 14.64 6.42C14.63 6.48 14.65 6.66 14.64 6.8Z" fill="currentColor"/>
    </symbol>
</svg>